<?xml version="1.0" encoding="UTF-8"?>
<svg id="Layer_1" xmlns="http://www.w3.org/2000/svg" version="1.1" viewBox="0 0 564.86 134.54">
  <!-- Generator: Adobe Illustrator 29.2.1, SVG Export Plug-In . SVG Version: 2.1.0 Build 116)  -->
  <defs>
    <style>
      .st0 {
        fill: #000;
      }
    </style>
  </defs>
  <path class="st0" d="M20.58,36.15H7.58c-.95,0-1.73.77-1.73,1.73v56.89c0,.95.77,1.73,1.73,1.73h13c.95,0,1.73-.77,1.73-1.73v-56.89c0-.95-.77-1.73-1.73-1.73"/>
  <path class="st0" d="M42.52,3.23h-13c-.95,0-1.73.77-1.73,1.73v89.81c0,.95.77,1.73,1.73,1.73h13c.95,0,1.73-.77,1.73-1.73V4.96c0-.95-.77-1.73-1.73-1.73"/>
  <path class="st0" d="M152.25,36.15h-13c-.95,0-1.73.77-1.73,1.73v89.81c0,.95.77,1.73,1.73,1.73h13c.95,0,1.73-.77,1.73-1.73V37.88c0-.95-.77-1.73-1.73-1.73"/>
  <path class="st0" d="M174.2,36.15h-13c-.95,0-1.73.77-1.73,1.73v56.89c0,.95.77,1.73,1.73,1.73h13c.95,0,1.73-.77,1.73-1.73v-56.89c0-.95-.77-1.73-1.73-1.73"/>
  <path class="st0" d="M86.42,80.04h-34.95c-.95,0-1.73.77-1.73,1.73v13c0,.95.77,1.73,1.73,1.73h34.95c.95,0,1.73-.77,1.73-1.73v-13c0-.95-.77-1.73-1.73-1.73"/>
  <path class="st0" d="M86.42,58.1h-34.95c-.95,0-1.73.77-1.73,1.73v13c0,.95.77,1.73,1.73,1.73h34.95c.95,0,1.73-.77,1.73-1.73v-13c0-.95-.77-1.73-1.73-1.73"/>
  <path class="st0" d="M86.42,36.15h-34.95c-.95,0-1.73.77-1.73,1.73v13c0,.95.77,1.73,1.73,1.73h34.95c.95,0,1.73-.77,1.73-1.73v-13c0-.95-.77-1.73-1.73-1.73"/>
  <path class="st0" d="M130.31,80.04h-34.95c-.95,0-1.73.77-1.73,1.73v13c0,.95.77,1.73,1.73,1.73h34.95c.95,0,1.73-.77,1.73-1.73v-13c0-.95-.77-1.73-1.73-1.73"/>
  <path class="st0" d="M130.31,58.1h-34.95c-.95,0-1.73.77-1.73,1.73v13c0,.95.77,1.73,1.73,1.73h34.95c.95,0,1.73-.77,1.73-1.73v-13c0-.95-.77-1.73-1.73-1.73"/>
  <path class="st0" d="M130.31,36.15h-34.95c-.95,0-1.73.77-1.73,1.73v13c0,.95.77,1.73,1.73,1.73h34.95c.95,0,1.73-.77,1.73-1.73v-13c0-.95-.77-1.73-1.73-1.73"/>
  <path class="st0" d="M181.25,41.15c0-1.19.25-2.21.74-3.07.49-.86,1.16-1.52,2.01-1.99.84-.47,1.79-.7,2.83-.7,1.12,0,2.1.24,2.94.7.84.47,1.49,1.13,1.96,1.99.46.86.69,1.88.69,3.07s-.25,2.21-.74,3.07-1.17,1.52-2.01,1.99c-.84.47-1.79.7-2.83.7-1.1,0-2.07-.24-2.91-.7-.84-.47-1.5-1.13-1.97-1.99-.47-.86-.7-1.88-.7-3.07ZM182.71,41.15c0,1.44.37,2.54,1.12,3.32.75.78,1.74,1.17,2.98,1.17s2.24-.39,3-1.17c.76-.78,1.14-1.89,1.14-3.32s-.38-2.52-1.14-3.3c-.76-.78-1.76-1.17-3-1.17s-2.23.39-2.98,1.17c-.74.78-1.12,1.88-1.12,3.3ZM185.98,43.81h-1.33v-5.5h2.13c.96,0,1.58.17,1.89.52.3.35.45.75.45,1.21,0,.73-.29,1.23-.88,1.51l1.14,2.26h-1.46l-.98-1.97h-.96v1.97ZM187.6,39.59c-.12-.12-.42-.19-.88-.19h-.74v1.33h.9c.41,0,.66-.07.76-.21.1-.14.15-.3.15-.48s-.06-.33-.19-.45Z"/>
  <g>
    <path class="st0" d="M218.8,44.52h8.52l10.72,29.85,10.88-29.85h8.31v38.26h-6.54v-27.44l-10.07,27.44h-5.41l-9.91-27.22v27.22h-6.48v-38.26Z"/>
    <path class="st0" d="M261.19,75.07c0-1.82.38-3.34,1.15-4.56.77-1.21,1.81-2.17,3.13-2.87,1.32-.7,2.83-1.2,4.53-1.5,1.7-.3,3.47-.49,5.33-.56l4.29-.16v-1.02c0-1.93-.41-3.33-1.23-4.21-.82-.88-2.14-1.31-3.97-1.31s-3.11.31-3.97.94c-.86.63-1.43,1.51-1.71,2.65l-6.06-.54c.5-2.71,1.75-4.71,3.75-5.98,2-1.27,4.73-1.9,8.2-1.9,4.14,0,7.09.94,8.84,2.81,1.75,1.88,2.63,4.58,2.63,8.12v17.79h-6.27v-3.43c-1.07,1.21-2.34,2.21-3.8,2.97-1.47.77-3.23,1.15-5.31,1.15-2.82,0-5.12-.72-6.89-2.17s-2.65-3.53-2.65-6.24ZM267.73,74.75c0,1.14.36,2.06,1.07,2.76.71.7,1.88,1.04,3.48,1.04,2.21,0,3.99-.57,5.33-1.71,1.34-1.14,2.01-2.75,2.01-4.82v-2.36l-3.97.16c-3.04.11-5.12.57-6.24,1.39-1.13.82-1.69,2-1.69,3.54Z"/>
    <path class="st0" d="M290.98,54.92h6.59v3.86c1.39-1.75,2.86-2.97,4.39-3.67,1.54-.7,3.13-1.04,4.77-1.04,3.07,0,5.39.87,6.97,2.6,1.57,1.73,2.36,4.23,2.36,7.48v18.65h-6.75v-17.36c0-2.07-.38-3.55-1.15-4.42-.77-.88-1.94-1.31-3.51-1.31-.89,0-1.76.16-2.6.48-.84.32-1.6.82-2.28,1.5-.68.61-1.19,1.26-1.53,1.96-.34.7-.51,1.62-.51,2.76v16.4h-6.75v-27.87Z"/>
    <path class="st0" d="M320.62,73.52v-18.6h6.75v17.36c0,2.04.35,3.49,1.04,4.37.7.88,1.81,1.31,3.35,1.31,1.82,0,3.39-.64,4.72-1.93.64-.61,1.14-1.27,1.5-1.98.36-.71.54-1.61.54-2.68v-16.45h6.75v27.87h-6.65v-3.86c-1.25,1.61-2.62,2.8-4.13,3.56-1.5.77-3.13,1.15-4.88,1.15-3.04,0-5.3-.87-6.78-2.6-1.48-1.73-2.22-4.24-2.22-7.53Z"/>
    <path class="st0" d="M352.23,60.71h-4.45v-5.31h4.45v-1.82c0-3.18.88-5.55,2.65-7.13,1.77-1.57,4.01-2.36,6.72-2.36,1.82,0,3.7.27,5.63.8l-.96,4.93c-.57-.18-1.12-.29-1.63-.35-.52-.05-1.03-.08-1.53-.08-1.21,0-2.21.3-2.97.91-.77.61-1.15,1.66-1.15,3.16v1.93h6.64v5.31h-6.64v22.08h-6.75v-22.08Z"/>
    <path class="st0" d="M366.59,75.07c0-1.82.38-3.34,1.15-4.56.77-1.21,1.81-2.17,3.13-2.87,1.32-.7,2.83-1.2,4.53-1.5,1.7-.3,3.47-.49,5.33-.56l4.29-.16v-1.02c0-1.93-.41-3.33-1.23-4.21-.82-.88-2.14-1.31-3.97-1.31s-3.11.31-3.96.94c-.86.63-1.43,1.51-1.71,2.65l-6.06-.54c.5-2.71,1.75-4.71,3.75-5.98,2-1.27,4.73-1.9,8.2-1.9,4.14,0,7.09.94,8.84,2.81,1.75,1.88,2.63,4.58,2.63,8.12v17.79h-6.27v-3.43c-1.07,1.21-2.34,2.21-3.8,2.97-1.47.77-3.23,1.15-5.31,1.15-2.82,0-5.12-.72-6.89-2.17s-2.65-3.53-2.65-6.24ZM373.13,74.75c0,1.14.36,2.06,1.07,2.76.71.7,1.88,1.04,3.48,1.04,2.21,0,3.99-.57,5.33-1.71,1.34-1.14,2.01-2.75,2.01-4.82v-2.36l-3.96.16c-3.04.11-5.12.57-6.24,1.39-1.13.82-1.69,2-1.69,3.54Z"/>
    <path class="st0" d="M395.48,68.96c0-3.04.55-5.67,1.66-7.9,1.11-2.23,2.68-3.96,4.72-5.17,2.04-1.21,4.46-1.82,7.29-1.82,3.5,0,6.24.86,8.23,2.57s3.21,4.11,3.67,7.18l-6.48.86c-.29-1.57-.83-2.82-1.63-3.75-.8-.93-2.08-1.39-3.83-1.39-2.39,0-4.1.87-5.12,2.6-1.02,1.73-1.53,3.96-1.53,6.67s.5,4.96,1.5,6.73c1,1.77,2.71,2.65,5.14,2.65,1.79,0,3.13-.48,4.05-1.45.91-.96,1.49-2.27,1.74-3.91h6.54c-.43,3.39-1.69,6.05-3.78,7.96-2.09,1.91-4.99,2.87-8.71,2.87-4.32,0-7.65-1.31-9.97-3.94-2.32-2.63-3.48-6.21-3.48-10.74Z"/>
    <path class="st0" d="M427.04,73.14v-12.92h-4.39v-5.31h4.39v-7.5h6.75v7.5h6.91v5.31h-6.91v13.61c0,1.25.29,2.23.86,2.95.57.72,1.45,1.07,2.63,1.07.68,0,1.29-.05,1.82-.16.54-.11,1.04-.23,1.5-.38l1.02,5.04c-.89.29-1.81.52-2.76.7-.95.18-2.03.27-3.24.27-2.21,0-3.95-.4-5.2-1.21-1.25-.8-2.13-1.96-2.63-3.48-.5-1.52-.75-3.35-.75-5.49Z"/>
    <path class="st0" d="M443.71,73.52v-18.6h6.75v17.36c0,2.04.35,3.49,1.04,4.37.7.88,1.81,1.31,3.35,1.31,1.82,0,3.39-.64,4.72-1.93.64-.61,1.14-1.27,1.5-1.98.36-.71.54-1.61.54-2.68v-16.45h6.75v27.87h-6.65v-3.86c-1.25,1.61-2.62,2.8-4.13,3.56-1.5.77-3.13,1.15-4.88,1.15-3.04,0-5.3-.87-6.78-2.6-1.48-1.73-2.22-4.24-2.22-7.53Z"/>
    <path class="st0" d="M473.34,54.92h6.59v3.91c2.07-2.93,4.73-4.39,7.98-4.39.5,0,.97.02,1.42.05.45.04.85.09,1.21.16l-.8,5.95c-.79-.21-1.63-.32-2.52-.32s-1.74.13-2.55.4-1.56.71-2.28,1.31c-.71.57-1.28,1.27-1.69,2.09-.41.82-.62,1.8-.62,2.95v15.75h-6.75v-27.87Z"/>
    <path class="st0" d="M492.9,44.42h6.81v6.06h-6.81v-6.06ZM492.96,54.92h6.75v27.87h-6.75v-27.87Z"/>
    <path class="st0" d="M504.8,54.92h6.59v3.86c1.39-1.75,2.86-2.97,4.39-3.67,1.54-.7,3.13-1.04,4.77-1.04,3.07,0,5.39.87,6.97,2.6,1.57,1.73,2.36,4.23,2.36,7.48v18.65h-6.75v-17.36c0-2.07-.38-3.55-1.15-4.42-.77-.88-1.94-1.31-3.51-1.31-.89,0-1.76.16-2.6.48-.84.32-1.6.82-2.28,1.5-.68.61-1.19,1.26-1.53,1.96-.34.7-.51,1.62-.51,2.76v16.4h-6.75v-27.87Z"/>
    <path class="st0" d="M553.94,80.37v-2.73c-1.04,1.36-2.27,2.41-3.7,3.16-1.43.75-3.09,1.13-4.98,1.13-2.57,0-4.72-.59-6.43-1.77-1.71-1.18-2.99-2.81-3.83-4.9-.84-2.09-1.26-4.47-1.26-7.15,0-2.82.48-5.29,1.45-7.4.96-2.11,2.35-3.74,4.15-4.9,1.8-1.16,3.94-1.74,6.4-1.74,1.57,0,3.07.29,4.5.88,1.43.59,2.71,1.65,3.86,3.19v-3.22h6.59v23.79c0,3.14-.4,5.84-1.21,8.09-.8,2.25-2.15,3.97-4.05,5.17-1.89,1.2-4.52,1.8-7.88,1.8-3.86,0-6.87-.72-9.03-2.17-2.16-1.45-3.4-3.74-3.72-6.89h6.54c.29,1.43.9,2.46,1.85,3.08.95.62,2.38.94,4.31.94,2.43,0,4.11-.7,5.04-2.09.93-1.39,1.39-3.48,1.39-6.27ZM552.38,61.73c-1.07-1.5-2.75-2.25-5.04-2.25-1.93,0-3.53.68-4.8,2.04-1.27,1.36-1.9,3.52-1.9,6.48,0,2.04.3,3.67.91,4.9s1.4,2.13,2.38,2.68c.98.55,2.04.83,3.19.83,2.32,0,4.05-.75,5.17-2.25,1.12-1.5,1.69-3.39,1.69-5.68v-.86c0-2.43-.54-4.39-1.61-5.9Z"/>
  </g>
</svg>